<?xml version="1.0" encoding="UTF-8" standalone="no"?><svg xmlns:svg="http://www.w3.org/2000/svg" xmlns="http://www.w3.org/2000/svg" xmlns:xlink="http://www.w3.org/1999/xlink" version="1.1" width="283.28912" height="283.28833" id="svg2872"><defs id="defs2874"><radialGradient cx="182.9837" cy="395.04871" r="148.95309" fx="182.9837" fy="395.04871" id="radialGradient3033" xlink:href="#linearGradient3755" gradientUnits="userSpaceOnUse" gradientTransform="matrix(0.22914334,-0.24901479,0.7643572,0.83064268,-272.85337,-159.69482)"/><linearGradient id="linearGradient3755"><stop id="stop3757" style="stop-color:#008cbe;stop-opacity:1" offset="0"/><stop id="stop3759" style="stop-color:#b2ffff;stop-opacity:1" offset="1"/></linearGradient></defs><g id="layer1" transform="translate(-233.35544,-390.71802)"><g transform="matrix(8.4519723,0,0,8.4519723,-278.45012,-403.82975)" id="g3025"><path d="m 66.432103,97.488679 c -5.19584,5.646431 -3.93661,16.169031 2.81107,23.501871 6.74768,7.33285 16.42898,8.69955 21.62483,3.05312 5.19585,-5.64643 3.9402,-16.16946 -2.80749,-23.5023 -6.74768,-7.332861 -16.43256,-8.699131 -21.62841,-3.052691 z m 4.71149,2.34553 c 4.08256,-4.43659 11.589,-3.47152 16.76741,2.155961 5.17842,5.6275 6.06647,13.78491 1.98391,18.2215 -4.08256,4.43658 -11.59097,3.47369 -16.76939,-2.15381 -5.17842,-5.6275 -6.06449,-13.78704 -1.98193,-18.223651 z" id="path5874" style="fill:url(#radialGradient3033);fill-opacity:1;stroke:none"/><rect width="4.349854" height="4.349854" rx="0.76958966" ry="0.76958966" x="85.381561" y="99.493881" id="rect5876" style="fill:#ff7f2a;fill-opacity:1;fill-rule:nonzero;stroke:#d45500;stroke-width:0.74403799;stroke-miterlimit:4;stroke-dasharray:none"/><rect width="10.245436" height="10.245436" rx="1.8126545" ry="1.8126545" x="60.92659" y="105.2245" id="rect5878" style="fill:#ff7f2a;fill-opacity:1;fill-rule:nonzero;stroke:#d45500;stroke-width:0.74403799;stroke-miterlimit:4;stroke-dasharray:none"/><rect width="6.1897531" height="6.1897531" rx="1.0951102" ry="1.0951102" x="87.404739" y="118.63705" id="rect5880" style="fill:#ff7f2a;fill-opacity:1;fill-rule:nonzero;stroke:#d45500;stroke-width:0.74403799;stroke-miterlimit:4;stroke-dasharray:none"/></g></g></svg>