<svg
   preserveAspectRatio="xMidYMid meet"
   width="16"
   height="16"
   version="1.1"
   id="svg5"
   xmlns:xlink="http://www.w3.org/1999/xlink"
   xmlns="http://www.w3.org/2000/svg"
   xmlns:svg="http://www.w3.org/2000/svg">
  <defs
     id="defs5">
    <clipPath
       id="SVGID_2_">
      <use
         overflow="visible"
         xlink:href="#SVGID_1_"
         id="use1" />
    </clipPath>
    <clipPath
       id="clipPath2">
      <use
         overflow="visible"
         xlink:href="#SVGID_1_"
         id="use2" />
    </clipPath>
    <clipPath
       id="clipPath3">
      <use
         overflow="visible"
         xlink:href="#SVGID_1_"
         id="use3" />
    </clipPath>
    <clipPath
       id="clipPath4">
      <use
         overflow="visible"
         xlink:href="#SVGID_1_"
         id="use4" />
    </clipPath>
    <clipPath
       id="clipPath5">
      <use
         overflow="visible"
         xlink:href="#SVGID_1_"
         id="use5" />
    </clipPath>
    <clipPath
       id="clipPath6">
      <use
         overflow="visible"
         xlink:href="#SVGID_1_"
         id="use6" />
    </clipPath>
    <clipPath
       id="clipPath7">
      <use
         overflow="visible"
         xlink:href="#SVGID_1_"
         id="use7" />
    </clipPath>
    <clipPath
       id="clipPath8">
      <use
         overflow="visible"
         xlink:href="#SVGID_1_"
         id="use8" />
    </clipPath>
    <clipPath
       id="clipPath9">
      <use
         overflow="visible"
         xlink:href="#SVGID_1_"
         id="use9" />
    </clipPath>
    <clipPath
       id="clipPath10">
      <use
         overflow="visible"
         xlink:href="#SVGID_1_"
         id="use10" />
    </clipPath>
    <clipPath
       id="clipPath11">
      <use
         overflow="visible"
         xlink:href="#SVGID_1_"
         id="use11" />
    </clipPath>
    <clipPath
       id="clipPath12">
      <use
         overflow="visible"
         xlink:href="#SVGID_1_"
         id="use12" />
    </clipPath>
    <clipPath
       id="clipPath13">
      <use
         overflow="visible"
         xlink:href="#SVGID_1_"
         id="use13" />
    </clipPath>
    <clipPath
       id="clipPath14">
      <use
         overflow="visible"
         xlink:href="#SVGID_1_"
         id="use14" />
    </clipPath>
    <clipPath
       id="clipPath15">
      <use
         overflow="visible"
         xlink:href="#SVGID_1_"
         id="use15" />
    </clipPath>
    <clipPath
       id="clipPath16">
      <use
         overflow="visible"
         xlink:href="#SVGID_1_"
         id="use16" />
    </clipPath>
    <clipPath
       id="clipPath17">
      <use
         overflow="visible"
         xlink:href="#SVGID_1_"
         id="use17" />
    </clipPath>
    <clipPath
       id="clipPath18">
      <use
         overflow="visible"
         xlink:href="#SVGID_1_"
         id="use18" />
    </clipPath>
    <clipPath
       id="clipPath19">
      <use
         overflow="visible"
         xlink:href="#SVGID_1_"
         id="use19" />
    </clipPath>
    <clipPath
       id="clipPath20">
      <use
         overflow="visible"
         xlink:href="#SVGID_1_"
         id="use20" />
    </clipPath>
    <clipPath
       id="clipPath21">
      <use
         overflow="visible"
         xlink:href="#SVGID_1_"
         id="use21" />
    </clipPath>
    <clipPath
       id="clipPath22">
      <use
         overflow="visible"
         xlink:href="#SVGID_1_"
         id="use22" />
    </clipPath>
    <circle
       cx="500"
       cy="500"
       id="SVGID_1_"
       r="500" />
    <clipPath
       id="SVGID_2_-0">
      <use
         overflow="visible"
         xlink:href="#SVGID_1_-5"
         id="use1-9" />
    </clipPath>
    <clipPath
       id="clipPath2-4">
      <use
         overflow="visible"
         xlink:href="#SVGID_1_-5"
         id="use2-8" />
    </clipPath>
    <clipPath
       id="clipPath3-8">
      <use
         overflow="visible"
         xlink:href="#SVGID_1_-5"
         id="use3-2" />
    </clipPath>
    <clipPath
       id="clipPath4-4">
      <use
         overflow="visible"
         xlink:href="#SVGID_1_-5"
         id="use4-5" />
    </clipPath>
    <clipPath
       id="clipPath5-5">
      <use
         overflow="visible"
         xlink:href="#SVGID_1_-5"
         id="use5-1" />
    </clipPath>
    <clipPath
       id="clipPath6-7">
      <use
         overflow="visible"
         xlink:href="#SVGID_1_-5"
         id="use6-1" />
    </clipPath>
    <circle
       cx="500"
       cy="500"
       id="SVGID_1_-5"
       r="500" />
  </defs>
  <g
     transform="matrix(0.11280844,0,0,0.11280844,-0.74910965,-0.11213755)"
     id="g5">
    <g
       transform="matrix(0.1,0,0,-0.1,0,150)"
       fill="#b4b2b1"
       stroke="none"
       id="g1">
      <path
         d="m 658,736 c -33,-12 -48,-44 -48,-101 0,-37 5,-48 29,-66 28,-21 36,-21 362,-20 321,2 334,3 352,22 42,45 27,148 -23,164 -33,10 -643,11 -672,1 z"
         id="path1" />
    </g>
    <g
       transform="matrix(0.1,0,0,-0.1,0,150)"
       fill="#f89f1c"
       stroke="none"
       id="g3">
      <path
         d="m 841,1202 c -18,-6 -194,-182 -188,-188 2,-2 21,2 43,9 83,27 117,12 229,-99 53,-52 108,-97 122,-100 35,-9 95,23 107,57 16,47 -2,80 -102,180 -95,95 -181,152 -211,141 z"
         id="path2" />
      <path
         d="M 947,382 C 897,333 841,285 823,276 783,256 723,255 676,275 c -36,15 -37,15 -27,-4 35,-64 -18,-140 -86,-126 l -28,6 23,-20 c 75,-66 227,-79 336,-28 80,37 266,220 266,261 0,54 -31,92 -84,101 -35,7 -39,5 -129,-83 z"
         id="path3" />
    </g>
    <g
       transform="matrix(0.1,0,0,-0.1,0,150)"
       fill="#000000"
       stroke="none"
       id="g4">
      <path
         d="M 559,1173 C 228,842 204,813 180,705 167,647 174,588 202,510 220,463 246,432 379,297 523,152 538,140 571,140 c 67,0 111,57 88,117 -5,15 -68,86 -138,158 -71,72 -134,141 -140,153 -19,36 -17,127 3,157 22,33 224,243 446,461 171,169 175,173 175,214 0,54 -38,90 -93,90 -35,0 -52,-16 -353,-317 z"
         id="path4" />
    </g>
  </g>
  <g
     id="g7"
     transform="matrix(0.00544835,0,0,0.00544835,10.551652,10.551652)">
    <g
       id="g5-1">
      <defs
         id="defs6">
        <circle
           cx="500"
           cy="500"
           id="circle1"
           r="500" />
      </defs>
      <clipPath
         id="clipPath7-2">
        <use
           overflow="visible"
           xlink:href="#SVGID_1_-5"
           id="use7-7" />
      </clipPath>
      <rect
         clip-path="url(#SVGID_2_-0)"
         fill="#de2910"
         height="1457.153"
         width="1813.9399"
         x="-210.011"
         y="-138.25101"
         id="rect1" />
      <polygon
         clip-path="url(#SVGID_2_-0)"
         fill="#ffde00"
         points="359.733,391.717 309.197,236.19 258.663,391.717 95.135,391.717 227.431,487.836 176.896,643.366 309.197,547.243 441.499,643.366 390.963,487.836 523.26,391.717 "
         id="polygon1" />
      <polygon
         clip-path="url(#SVGID_2_-0)"
         fill="#ffde00"
         points="673.117,262.561 701.165,309.303 705.948,255.004 759.066,242.778 708.906,221.446 713.688,167.147 677.901,208.263 627.74,186.93 655.785,233.672 619.995,274.788 "
         id="polygon2" />
      <polygon
         clip-path="url(#SVGID_2_-0)"
         fill="#ffde00"
         points="813.819,406.199 821.53,460.157 847.009,411.973 900.708,421.318 862.756,382.194 888.24,334.002 839.295,358.011 801.343,318.888 809.052,372.847 760.113,396.854 "
         id="polygon3" />
      <polygon
         clip-path="url(#SVGID_2_-0)"
         fill="#ffde00"
         points="861.941,619.201 904.865,585.601 850.391,587.555 831.697,536.349 816.723,588.763 762.247,590.716 807.466,621.154 792.492,673.567 835.416,639.967 880.635,670.402 "
         id="polygon4" />
      <polygon
         clip-path="url(#SVGID_2_-0)"
         fill="#ffde00"
         points="708.275,745.627 710.803,691.181 676.754,733.742 625.749,714.509 655.707,760.049 621.651,802.615 674.223,788.193 704.181,833.732 706.711,779.28 759.279,764.859 "
         id="polygon5" />
    </g>
  </g>
</svg>
