<svg
   width="16"
   height="16"
   preserveAspectRatio="xMidYMid"
   version="1.1"
   id="svg5"
   xmlns="http://www.w3.org/2000/svg"
   xmlns:svg="http://www.w3.org/2000/svg">
  <defs
     id="defs5">
    <clipPath
       id="SVGID_2_-0">
      <circle
         cx="500"
         cy="500"
         id="use1-9"
         r="500" />
    </clipPath>
    <clipPath
       id="clipPath1">
      <circle
         cx="500"
         cy="500"
         id="use1"
         r="500" />
    </clipPath>
    <clipPath
       id="clipPath2">
      <circle
         cx="500"
         cy="500"
         id="use2"
         r="500" />
    </clipPath>
    <clipPath
       id="clipPath3">
      <circle
         cx="500"
         cy="500"
         id="use3"
         r="500" />
    </clipPath>
    <clipPath
       id="clipPath4">
      <circle
         cx="500"
         cy="500"
         id="use4"
         r="500" />
    </clipPath>
    <clipPath
       id="clipPath5">
      <circle
         cx="500"
         cy="500"
         id="use5"
         r="500" />
    </clipPath>
    <circle
       cx="500"
       cy="500"
       id="circle1"
       r="500" />
    <clipPath
       id="SVGID_2_">
      <circle
         cx="500"
         cy="500"
         id="use1-2"
         r="500" />
    </clipPath>
    <clipPath
       id="clipPath2-3">
      <circle
         cx="500"
         cy="500"
         id="use2-2"
         r="500" />
    </clipPath>
    <clipPath
       id="clipPath3-2">
      <circle
         cx="500"
         cy="500"
         id="use3-1"
         r="500" />
    </clipPath>
    <clipPath
       id="clipPath4-6">
      <circle
         cx="500"
         cy="500"
         id="use4-8"
         r="500" />
    </clipPath>
    <clipPath
       id="clipPath5-5">
      <circle
         cx="500"
         cy="500"
         id="use5-7"
         r="500" />
    </clipPath>
    <clipPath
       id="clipPath6">
      <circle
         cx="500"
         cy="500"
         id="use6"
         r="500" />
    </clipPath>
    <clipPath
       id="clipPath7">
      <circle
         cx="500"
         cy="500"
         id="use7"
         r="500" />
    </clipPath>
    <clipPath
       id="clipPath8">
      <circle
         cx="500"
         cy="500"
         id="use8"
         r="500" />
    </clipPath>
    <clipPath
       id="clipPath9">
      <circle
         cx="500"
         cy="500"
         id="use9"
         r="500" />
    </clipPath>
    <clipPath
       id="clipPath10">
      <circle
         cx="500"
         cy="500"
         id="use10"
         r="500" />
    </clipPath>
    <clipPath
       id="clipPath11">
      <circle
         cx="500"
         cy="500"
         id="use11"
         r="500" />
    </clipPath>
    <clipPath
       id="clipPath12">
      <circle
         cx="500"
         cy="500"
         id="use12"
         r="500" />
    </clipPath>
    <clipPath
       id="clipPath13">
      <circle
         cx="500"
         cy="500"
         id="use13"
         r="500" />
    </clipPath>
    <clipPath
       id="clipPath14">
      <circle
         cx="500"
         cy="500"
         id="use14"
         r="500" />
    </clipPath>
    <clipPath
       id="clipPath15">
      <circle
         cx="500"
         cy="500"
         id="use15"
         r="500" />
    </clipPath>
    <clipPath
       id="clipPath16">
      <circle
         cx="500"
         cy="500"
         id="use16"
         r="500" />
    </clipPath>
    <clipPath
       id="clipPath17">
      <circle
         cx="500"
         cy="500"
         id="use17"
         r="500" />
    </clipPath>
    <clipPath
       id="clipPath18">
      <circle
         cx="500"
         cy="500"
         id="use18"
         r="500" />
    </clipPath>
    <clipPath
       id="clipPath19">
      <circle
         cx="500"
         cy="500"
         id="use19"
         r="500" />
    </clipPath>
    <clipPath
       id="clipPath20">
      <circle
         cx="500"
         cy="500"
         id="use20"
         r="500" />
    </clipPath>
    <clipPath
       id="clipPath21">
      <circle
         cx="500"
         cy="500"
         id="use21"
         r="500" />
    </clipPath>
    <clipPath
       id="clipPath22">
      <circle
         cx="500"
         cy="500"
         id="use22"
         r="500" />
    </clipPath>
    <circle
       cx="500"
       cy="500"
       id="circle1-1"
       r="500" />
  </defs>
  <g
     transform="scale(0.086666)"
     id="g5">
    <g
       id="g2"
       transform="matrix(1.2984197,0,0,1.2984197,-8.3934275,-1.0619093)">
      <g
         transform="matrix(0.1,0,0,-0.1,0,150)"
         fill="#b4b2b1"
         stroke="none"
         id="g1">
        <path
           d="m 658,736 c -33,-12 -48,-44 -48,-101 0,-37 5,-48 29,-66 28,-21 36,-21 362,-20 321,2 334,3 352,22 42,45 27,148 -23,164 -33,10 -643,11 -672,1 z"
           id="path1" />
      </g>
      <g
         transform="matrix(0.1,0,0,-0.1,0,150)"
         fill="#f89f1c"
         stroke="none"
         id="g3">
        <path
           d="m 841,1202 c -18,-6 -194,-182 -188,-188 2,-2 21,2 43,9 83,27 117,12 229,-99 53,-52 108,-97 122,-100 35,-9 95,23 107,57 16,47 -2,80 -102,180 -95,95 -181,152 -211,141 z"
           id="path2" />
        <path
           d="M 947,382 C 897,333 841,285 823,276 783,256 723,255 676,275 c -36,15 -37,15 -27,-4 35,-64 -18,-140 -86,-126 l -28,6 23,-20 c 75,-66 227,-79 336,-28 80,37 266,220 266,261 0,54 -31,92 -84,101 -35,7 -39,5 -129,-83 z"
           id="path3" />
      </g>
      <g
         transform="matrix(0.1,0,0,-0.1,0,150)"
         fill="#dddddd"
         stroke="none"
         id="g4">
        <path
           d="M 559,1173 C 228,842 204,813 180,705 167,647 174,588 202,510 220,463 246,432 379,297 523,152 538,140 571,140 c 67,0 111,57 88,117 -5,15 -68,86 -138,158 -71,72 -134,141 -140,153 -19,36 -17,127 3,157 22,33 224,243 446,461 171,169 175,173 175,214 0,54 -38,90 -93,90 -35,0 -52,-16 -353,-317 z"
           id="path4" />
      </g>
    </g>
    <g
       id="g19"
       transform="matrix(0.06279729,0,0,0.06279729,121.81951,121.81951)">
      <defs
         id="defs22">
        <circle
           cx="500"
           cy="500"
           id="circle3"
           r="500" />
      </defs>
      <clipPath
         id="clipPath23">
        <circle
           cx="500"
           cy="500"
           id="use23"
           r="500" />
      </clipPath>
      <rect
         clip-path="url(#SVGID_2_)"
         fill="#ffffff"
         height="1000"
         width="2744.4419"
         x="-550.64899"
         id="rect1"
         y="0" />
      <rect
         clip-path="url(#SVGID_2_)"
         fill="#b22234"
         height="111.111"
         width="2744.4419"
         x="-550.64899"
         id="rect2"
         y="0" />
      <rect
         clip-path="url(#SVGID_2_)"
         fill="#b22234"
         height="111.112"
         width="2744.4419"
         x="-550.64899"
         y="222.222"
         id="rect3" />
      <rect
         clip-path="url(#SVGID_2_)"
         fill="#b22234"
         height="111.113"
         width="2744.4419"
         x="-550.64899"
         y="444.444"
         id="rect4" />
      <rect
         clip-path="url(#SVGID_2_)"
         fill="#b22234"
         height="111.111"
         width="2744.4419"
         x="-550.64899"
         y="666.66699"
         id="rect5" />
      <rect
         clip-path="url(#SVGID_2_)"
         fill="#b22234"
         height="111.111"
         width="2744.4419"
         x="-550.64899"
         y="888.88898"
         id="rect6" />
      <rect
         clip-path="url(#SVGID_2_)"
         fill="#3c3b6e"
         height="555.55701"
         width="1097.775"
         x="-550.64899"
         id="rect7"
         y="0" />
      <polygon
         clip-path="url(#SVGID_2_)"
         fill="#ffffff"
         points="362.243,44.172 352.254,74.926 319.923,74.926 346.076,93.924 336.092,124.664 362.243,105.666 388.393,124.664 378.407,93.921 404.548,74.926 372.231,74.926 "
         id="polygon7" />
      <polygon
         clip-path="url(#SVGID_2_)"
         fill="#ffffff"
         points="271.236,122.178 261.25,152.919 228.928,152.919 255.08,171.918 245.086,202.659 271.24,183.659 297.387,202.659 287.4,171.918 313.553,152.919 281.223,152.919 "
         id="polygon8" />
      <polygon
         clip-path="url(#SVGID_2_)"
         fill="#ffffff"
         points="453.233,122.178 443.247,152.919 410.928,152.919 437.078,171.917 427.083,202.659 453.238,183.659 479.384,202.659 469.398,171.92 495.553,152.919 463.229,152.919 "
         id="polygon9" />
      <path
         clip-path="url(#SVGID_2_)"
         d="m -365.758,244.668 -0.003,-0.002 0.002,-0.003 v 0 l 0.002,0.005 z"
         fill="#ffffff"
         id="path9" />
      <path
         clip-path="url(#SVGID_2_)"
         d="m -183.76,244.668 h -0.001 l 0.003,-0.005 v 0 0.003 z"
         fill="#ffffff"
         id="path10" />
      <path
         clip-path="url(#SVGID_2_)"
         d="m 180.243,200.173 -9.987,30.741 h -32.33 l 26.155,19 -9.988,30.75 26.146,-18.999 26.153,18.999 -9.996,-30.75 26.154,-19 h -32.322 z m -0.006,44.495 h -0.001 l 0.003,-0.005 v 0 l 0.001,0.003 z"
         fill="#ffffff"
         id="path11" />
      <path
         clip-path="url(#SVGID_2_)"
         d="m 362.243,200.173 -9.987,30.741 h -32.333 l 26.157,19.001 -9.988,30.749 26.15,-18.997 26.15,18.997 -9.99,-30.752 26.145,-18.998 h -32.318 z m 0,44.495 -0.003,-0.002 0.002,-0.003 v 0 l 0.003,0.005 z"
         fill="#ffffff"
         id="path12" />
      <polygon
         clip-path="url(#SVGID_2_)"
         fill="#ffffff"
         points="89.236,278.181 79.251,308.919 46.931,308.919 73.074,327.916 63.086,358.659 89.236,339.66 115.386,358.659 105.4,327.92 131.555,308.919 99.223,308.919 "
         id="polygon12" />
      <polygon
         clip-path="url(#SVGID_2_)"
         fill="#ffffff"
         points="271.236,278.181 261.25,308.919 228.928,308.919 255.081,327.918 245.086,358.659 271.24,339.658 297.387,358.659 287.4,327.918 313.553,308.919 281.223,308.919 "
         id="polygon13" />
      <polygon
         clip-path="url(#SVGID_2_)"
         fill="#ffffff"
         points="453.233,278.181 443.247,308.919 410.928,308.919 437.078,327.916 427.083,358.659 453.238,339.658 479.384,358.659 469.397,327.92 495.553,308.919 463.229,308.919 "
         id="polygon14" />
      <polygon
         clip-path="url(#SVGID_2_)"
         fill="#ffffff"
         points="190.229,386.915 180.243,356.176 170.256,386.915 137.926,386.915 164.079,405.915 154.092,436.652 180.239,417.653 206.392,436.652 196.399,405.914 222.55,386.915 "
         id="polygon15" />
      <polygon
         clip-path="url(#SVGID_2_)"
         fill="#ffffff"
         points="372.229,386.915 362.243,356.176 352.256,386.915 319.923,386.915 346.079,405.917 336.092,436.652 362.243,417.656 388.393,436.652 378.406,405.912 404.548,386.915 "
         id="polygon16" />
      <polygon
         clip-path="url(#SVGID_2_)"
         fill="#ffffff"
         points="99.223,464.92 89.236,434.182 79.25,464.92 46.931,464.92 73.073,483.919 63.086,514.66 89.236,495.661 115.386,514.66 105.4,483.923 131.555,464.92 "
         id="polygon17" />
      <polygon
         clip-path="url(#SVGID_2_)"
         fill="#ffffff"
         points="281.223,464.92 271.236,434.182 261.25,464.92 228.928,464.92 255.081,483.921 245.086,514.66 271.24,495.659 297.387,514.66 287.4,483.921 313.553,464.92 "
         id="polygon18" />
      <polygon
         clip-path="url(#SVGID_2_)"
         fill="#ffffff"
         points="463.229,464.92 453.233,434.182 443.247,464.92 410.928,464.92 437.078,483.919 427.083,514.66 453.238,495.659 479.384,514.66 469.397,483.923 495.553,464.92 "
         id="polygon19" />
    </g>
  </g>
</svg>
