<svg xmlns="http://www.w3.org/2000/svg" viewBox="0 0 207 207"><path d="m106.178 59.654 2.36.042c1.68.035 3.36.079 5.04.13 2.746.08 5.49.126 8.236.172 1.85.05 3.701.101 5.551.156l2.617.042c9.567.375 15.51 4.222 22.004 11.079 10.502 12.249 10.502 12.249 11.254 18.691-.958 8.21-8.941 15.398-15.043 20.305-2.477 2.067-4.692 4.335-6.957 6.633-.954.945-1.91 1.89-2.867 2.832-5.07 5.017-10.036 10.043-14.664 15.477-2.044 2.354-4.231 4.521-6.469 6.69l2.125.298c11.037 1.74 17.506 5.264 24.875 13.703 2.3 3.308 4.306 6.758 6.313 10.25 4.518 7.605 9.184 14.133 15.445 20.375 3.33 3.528 5.076 6.17 5.742 11-.5 3.375-.5 3.375-2.45 5.062-4.19 1.803-7.849 1.751-12.362 1.688l-2.475.035c-6.467-.03-12.214-.987-17.35-5.137-2.794-3.42-5.198-6.722-7.238-10.648-2.437-4.652-5.643-8.182-9.215-12.004-4.014-4.365-7.697-9-11.41-13.621l-2.262-2.637c-1.738-2.363-1.738-2.363-1.738-5.363h-2l-.644 1.64c-1.846 3.213-4.396 5.565-7.043 8.11-4.02 3.94-7.899 7.906-11.54 12.203a149.768 149.768 0 0 1-4.171 4.594c-5.077 5.397-9.247 10.643-12.836 17.14-2.636 3.453-5.472 5.002-9.807 5.59-2.286.126-4.544.132-6.834.098l-2.316.035c-5.19-.026-11.92-.52-15.809-4.41-.93-6.414-.116-9.444 3.75-14.688 1.411-1.775 2.828-3.546 4.25-5.312a130.49 130.49 0 0 0 2.375-3.688l1.625-2.312h2l.754-1.715c5.486-10.06 16.277-19.04 24.898-26.439 4.438-3.873 8.626-7.962 12.793-12.123l2.344-2.334a4290.73 4290.73 0 0 0 4.866-4.859c2.465-2.462 4.938-4.917 7.412-7.372 1.585-1.582 3.17-3.165 4.753-4.748l2.217-2.194c4.001-4.02 7.52-8.09 10.743-12.762l1.22-1.454h2l1-7-2.562-.73c-3.826-1.414-7.056-3.35-10.438-5.583l-1.789-1.146c-11.98-7.798-11.98-7.798-13.21-13.541.211-6.143.211-6.143 2.558-8.695 3.427-1.832 6.596-1.665 10.379-1.555z" fill="#5b9bd4"/><path d="M113.178 4.091c3.198 2.811 4.801 4.873 5.382 9.196.723 16.913-10.31 31.215-21.093 43.25-5.575 5.978-11.954 11.317-18.602 16.062-2.63 1.94-4.458 3.356-5.039 6.664-.021 2.264.1 4.401.414 6.64l2.438.626c9.999 3.86 17.407 10.721 21.863 20.46 1.06 2.902 1.307 4.876.7 7.915-3.63 4.459-7.498 7.725-13.306 8.363l-3.57-.05c-1.173-.005-2.346-.009-3.555-.012-6.949-.586-11.097-2.21-16.132-7.051l-1.514-1.444a549.03 549.03 0 0 1-4.924-4.806l-3.71-3.594a2213.601 2213.601 0 0 1-3.727-3.656l-1.754-1.714c-5.625-5.615-10.797-11.188-11.246-19.474.13-8.883 4.728-16.175 10.812-22.375 2.8-2.616 5.696-5.094 8.625-7.562 10.155-8.8 17.654-20.805 25.517-31.601l1.483-2.024 1.565-2.26 1.435-1.74h2l.754-1.8c1.427-2.519 2.85-3.697 5.184-5.388l2.09-1.543c5.225-3.362 12.258-3.366 17.91-1.082Z" fill="#9dc3e6"/><path d="M137.408 148.435c6.49 5.77 10.474 13.19 14.872 20.578 3.981 6.592 8.275 12.09 13.718 17.516 3.33 3.528 5.076 6.17 5.742 11-.5 3.375-.5 3.375-2.45 5.062-4.19 1.803-7.849 1.751-12.362 1.688l-2.475.035c-6.467-.03-12.214-.987-17.35-5.137-2.794-3.42-5.198-6.722-7.238-10.648-2.437-4.652-5.643-8.182-9.215-12.004-4.014-4.365-7.697-9-11.41-13.621l-2.199-2.637c-3.038-3.986-3.318-7.452-2.8-12.363 8.38-9.1 24.105-5.87 33.167.531z" fill="#6fad47"/></svg>